<svg xmlns="http://www.w3.org/2000/svg" xmlns:xlink="http://www.w3.org/1999/xlink" width="512" zoomAndPan="magnify" viewBox="0 0 384 383.999986" height="512" preserveAspectRatio="xMidYMid meet" version="1.2"><defs/><g id="2fb02abd2c"><rect x="0" width="384" y="0" height="383.999986" style="fill:#ffffff;fill-opacity:1;stroke:none;"/><rect x="0" width="384" y="0" height="383.999986" style="fill:#fe0000;fill-opacity:1;stroke:none;"/><g style="fill:#181818;fill-opacity:1;"><g transform="translate(101.249596, 287.384393)"><path style="stroke:none" d="M 157.75 -156.5 L 170.5 -156.5 C 174.90625 -156.5 178.429688 -156.265625 181.066406 -155.800781 C 187.335938 -154.695312 192.773438 -151.550781 197.378906 -146.367188 C 202.292969 -140.839844 204.75 -133.925781 204.75 -125.625 C 204.75 -121.507812 204.355469 -117.148438 203.570312 -112.546875 C 202.371094 -105.523438 199.628906 -99.332031 195.339844 -93.972656 C 190.03125 -87.335938 183.847656 -83.375 176.800781 -82.089844 C 173.710938 -81.53125 169.691406 -81.25 164.75 -81.25 L 152.25 -81.25 L 152.25 -102.5 L 173.21875 -99.066406 L 168.71875 -71.566406 L 147.75 -75 L 147.75 -96.25 L 160.5 -96.25 C 164.90625 -96.25 168.429688 -96.015625 171.066406 -95.550781 C 177.335938 -94.445312 182.773438 -91.300781 187.378906 -86.117188 C 192.292969 -80.589844 194.75 -73.675781 194.75 -65.375 C 194.75 -61.21875 194.390625 -57.113281 193.675781 -53.054688 C 192.851562 -48.398438 191.511719 -44.0625 189.648438 -40.050781 C 186.597656 -33.480469 182.105469 -28.582031 176.175781 -25.34375 L 175.839844 -25.164062 L 175.5 -24.992188 C 169.84375 -22.164062 162.925781 -20.75 154.75 -20.75 L 142.25 -20.75 L 142.25 -42 L 163.226562 -38.617188 C 161.589844 -28.472656 160.621094 -22.25 160.3125 -19.941406 L 160.246094 -19.441406 L 159.65625 -16.199219 C 158.875 -11.898438 158.1875 -8.683594 157.597656 -6.5625 C 156.644531 -3.132812 154.980469 0.515625 152.597656 4.386719 L 152.285156 4.894531 L 151.941406 5.386719 C 145.050781 15.296875 133.066406 20.25 116 20.25 C 107.03125 20.25 99.597656 18.367188 93.695312 14.601562 C 89.300781 11.800781 85.925781 8.144531 83.570312 3.636719 C 81.355469 -0.601562 80.25 -5.230469 80.25 -10.25 C 80.25 -11.519531 81 -16.953125 82.503906 -26.542969 L 85.515625 -45.355469 L 106.5 -42 L 106.5 -20.75 L 69.25 -20.75 L 69.25 -42 L 90.226562 -38.617188 C 88.59375 -28.472656 87.621094 -22.25 87.3125 -19.941406 L 87.246094 -19.441406 L 86.65625 -16.199219 C 85.875 -11.898438 85.1875 -8.683594 84.597656 -6.5625 C 83.648438 -3.132812 81.980469 0.515625 79.597656 4.386719 L 79.285156 4.894531 L 78.945312 5.386719 C 72.050781 15.296875 60.070312 20.25 43 20.25 C 34.03125 20.25 26.597656 18.367188 20.695312 14.601562 C 16.300781 11.800781 12.925781 8.144531 10.570312 3.636719 C 8.355469 -0.601562 7.25 -5.230469 7.25 -10.25 C 7.25 -11.519531 8.003906 -16.953125 9.507812 -26.542969 L 12.515625 -45.355469 L 33.5 -42 L 33.5 -20.75 L 17 -20.75 C 11.027344 -20.75 5.835938 -21.542969 1.425781 -23.128906 C -1.902344 -24.328125 -4.855469 -25.980469 -7.425781 -28.085938 C -10.71875 -30.78125 -13.21875 -34.042969 -14.917969 -37.867188 L -15.175781 -38.445312 L -15.398438 -39.039062 C -16.800781 -42.777344 -17.5 -47.222656 -17.5 -52.375 C -17.5 -56.160156 -17.105469 -60.351562 -16.320312 -64.949219 C -15.097656 -72.125 -12.222656 -78.425781 -7.699219 -83.851562 C -2.324219 -90.300781 3.808594 -94.152344 10.699219 -95.40625 C 13.789062 -95.96875 17.804688 -96.25 22.75 -96.25 L 39 -96.25 L 39 -75 L 18.027344 -78.429688 L 22.527344 -105.929688 L 43.5 -102.5 L 43.5 -81.25 L 27 -81.25 C 21.074219 -81.25 15.960938 -81.980469 11.660156 -83.441406 C 8.28125 -84.589844 5.292969 -86.199219 2.695312 -88.269531 C -0.84375 -91.089844 -3.460938 -94.554688 -5.148438 -98.65625 L -5.429688 -99.335938 L -5.660156 -100.027344 C -6.886719 -103.710938 -7.5 -107.949219 -7.5 -112.75 C -7.5 -116.449219 -7.105469 -120.601562 -6.320312 -125.199219 C -5.097656 -132.375 -2.222656 -138.675781 2.300781 -144.101562 C 7.675781 -150.550781 13.808594 -154.402344 20.699219 -155.65625 C 23.789062 -156.21875 27.804688 -156.5 32.75 -156.5 L 49 -156.5 L 49 -135.25 L 28.03125 -138.710938 L 32.28125 -164.457031 C 32.390625 -165.101562 32.546875 -166.355469 32.753906 -168.21875 C 33.125 -171.566406 33.582031 -174.234375 34.125 -176.214844 C 34.421875 -177.304688 34.84375 -178.765625 35.394531 -180.605469 C 37.269531 -186.847656 40.59375 -191.707031 45.375 -195.183594 C 46.527344 -196.019531 47.972656 -197.019531 49.710938 -198.179688 C 55.742188 -202.058594 63.921875 -204 74.25 -204 C 85.007812 -204 93.453125 -201.777344 99.585938 -197.335938 C 103.804688 -194.28125 106.988281 -190.414062 109.144531 -185.726562 C 111.046875 -181.59375 112 -177.101562 112 -172.25 C 112 -170.648438 111.496094 -166.636719 110.496094 -160.21875 L 105.703125 -131.726562 L 84.75 -135.25 L 84.75 -156.5 L 122 -156.5 L 122 -135.25 L 101.03125 -138.710938 L 105.28125 -164.457031 C 105.390625 -165.101562 105.546875 -166.355469 105.753906 -168.21875 C 106.125 -171.566406 106.582031 -174.230469 107.121094 -176.214844 C 107.417969 -177.304688 107.84375 -178.765625 108.394531 -180.605469 C 110.269531 -186.847656 113.59375 -191.707031 118.375 -195.183594 C 119.527344 -196.019531 120.972656 -197.019531 122.710938 -198.179688 C 128.742188 -202.058594 136.921875 -204 147.25 -204 C 158.003906 -204 166.453125 -201.777344 172.585938 -197.335938 C 176.800781 -194.28125 179.988281 -190.414062 182.144531 -185.726562 C 184.046875 -181.59375 185 -177.101562 185 -172.25 C 185 -170.648438 184.496094 -166.636719 183.492188 -160.21875 L 178.703125 -131.726562 L 157.75 -135.25 Z M 132.628906 -114 L 141.503906 -166.777344 C 141.90625 -169.355469 142.203125 -171.324219 142.398438 -172.691406 C 142.484375 -173.277344 142.542969 -173.710938 142.578125 -173.992188 C 142.523438 -173.566406 142.5 -172.984375 142.5 -172.25 C 142.5 -170.894531 142.84375 -169.464844 143.539062 -167.957031 C 144.488281 -165.894531 145.859375 -164.214844 147.660156 -162.910156 C 148.929688 -161.992188 149.992188 -161.445312 150.847656 -161.269531 C 150.101562 -161.421875 148.902344 -161.5 147.25 -161.5 C 145.40625 -161.5 144.03125 -161.417969 143.128906 -161.257812 C 143.089844 -161.253906 143.0625 -161.246094 143.035156 -161.242188 C 143.039062 -161.242188 143.046875 -161.242188 143.058594 -161.246094 C 143.175781 -161.277344 143.316406 -161.320312 143.480469 -161.375 C 144.289062 -161.652344 145.222656 -162.132812 146.285156 -162.816406 C 145.027344 -161.976562 144.054688 -161.308594 143.371094 -160.8125 C 145.214844 -162.152344 146.695312 -163.746094 147.820312 -165.59375 C 148.40625 -166.558594 148.832031 -167.492188 149.101562 -168.390625 C 148.652344 -166.898438 148.328125 -165.777344 148.125 -165.03125 C 148.191406 -165.273438 148.242188 -165.476562 148.273438 -165.644531 C 148.269531 -165.613281 148.257812 -165.542969 148.238281 -165.433594 C 148.164062 -164.964844 148.082031 -164.328125 147.992188 -163.527344 C 147.699219 -160.894531 147.441406 -158.898438 147.214844 -157.539062 L 140.027344 -114 L 59.628906 -114 L 68.503906 -166.777344 C 68.90625 -169.355469 69.203125 -171.324219 69.398438 -172.691406 C 69.484375 -173.277344 69.542969 -173.710938 69.578125 -173.992188 C 69.523438 -173.566406 69.5 -172.984375 69.5 -172.25 C 69.5 -170.894531 69.847656 -169.464844 70.539062 -167.957031 C 71.488281 -165.894531 72.863281 -164.214844 74.660156 -162.910156 C 75.933594 -161.992188 76.992188 -161.445312 77.847656 -161.269531 C 77.101562 -161.421875 75.902344 -161.5 74.25 -161.5 C 72.40625 -161.5 71.03125 -161.417969 70.128906 -161.257812 C 70.09375 -161.253906 70.0625 -161.246094 70.039062 -161.242188 C 70.039062 -161.242188 70.046875 -161.242188 70.058594 -161.246094 C 70.175781 -161.277344 70.316406 -161.320312 70.480469 -161.375 C 71.289062 -161.652344 72.222656 -162.132812 73.285156 -162.816406 C 72.027344 -161.976562 71.054688 -161.308594 70.375 -160.8125 C 72.214844 -162.152344 73.699219 -163.746094 74.820312 -165.59375 C 75.40625 -166.558594 75.832031 -167.492188 76.101562 -168.390625 C 75.65625 -166.898438 75.328125 -165.777344 75.125 -165.03125 C 75.191406 -165.273438 75.242188 -165.476562 75.273438 -165.644531 C 75.269531 -165.613281 75.257812 -165.542969 75.238281 -165.433594 C 75.164062 -164.964844 75.082031 -164.328125 74.996094 -163.527344 C 74.703125 -160.894531 74.441406 -158.898438 74.214844 -157.539062 L 67.03125 -114 L 32.75 -114 C 30.359375 -114 28.878906 -113.945312 28.300781 -113.839844 C 30.546875 -114.25 32.484375 -115.042969 34.109375 -116.21875 C 34.445312 -116.460938 34.726562 -116.691406 34.953125 -116.910156 L 34.949219 -116.894531 C 35.304688 -117.324219 35.511719 -117.707031 35.570312 -118.046875 C 35.191406 -115.8125 35 -114.046875 35 -112.75 C 35 -112.382812 35.007812 -112.132812 35.023438 -112.007812 C 34.972656 -112.402344 34.851562 -112.886719 34.660156 -113.46875 L 14.5 -106.75 L 34.148438 -114.839844 C 33.042969 -117.527344 31.386719 -119.75 29.179688 -121.507812 C 27.917969 -122.515625 26.636719 -123.238281 25.339844 -123.679688 C 25.089844 -123.765625 24.875 -123.828125 24.691406 -123.867188 C 24.691406 -123.867188 24.738281 -123.859375 24.824219 -123.851562 C 25.363281 -123.78125 26.089844 -123.75 27 -123.75 L 68.507812 -123.75 L 57.054688 -53.75 L 22.75 -53.75 C 20.359375 -53.75 18.878906 -53.695312 18.300781 -53.59375 C 20.546875 -54 22.484375 -54.792969 24.109375 -55.96875 C 24.445312 -56.210938 24.726562 -56.441406 24.953125 -56.660156 L 24.949219 -56.644531 C 25.304688 -57.074219 25.515625 -57.457031 25.570312 -57.796875 C 25.191406 -55.566406 25 -53.757812 25 -52.375 C 25 -51.984375 25.003906 -51.746094 25.015625 -51.660156 C 24.933594 -52.316406 24.726562 -53.082031 24.398438 -53.960938 L 4.5 -46.5 L 23.917969 -55.128906 C 22.882812 -57.457031 21.40625 -59.40625 19.488281 -60.976562 C 18.292969 -61.957031 17.070312 -62.667969 15.824219 -63.117188 C 15.550781 -63.214844 15.308594 -63.289062 15.097656 -63.339844 L 15.109375 -63.339844 C 15.566406 -63.28125 16.195312 -63.25 17 -63.25 L 58.421875 -63.25 L 51.492188 -19.957031 C 50.828125 -15.726562 50.332031 -12.539062 50.003906 -10.394531 C 49.84375 -9.347656 49.722656 -8.566406 49.644531 -8.042969 C 49.613281 -7.832031 49.59375 -7.683594 49.582031 -7.605469 C 49.695312 -8.417969 49.75 -9.296875 49.75 -10.25 C 49.75 -12.1875 49.246094 -14.117188 48.238281 -16.042969 C 47.09375 -18.238281 45.53125 -19.964844 43.554688 -21.226562 C 42.597656 -21.835938 41.773438 -22.214844 41.074219 -22.363281 C 41.429688 -22.289062 42.074219 -22.25 43 -22.25 C 45.683594 -22.25 47.539062 -22.410156 48.566406 -22.730469 C 48.230469 -22.625 47.792969 -22.398438 47.25 -22.042969 C 46.035156 -21.253906 44.96875 -20.199219 44.054688 -18.886719 L 61.5 -6.75 L 43.402344 -17.886719 C 43.671875 -18.328125 43.863281 -18.667969 43.976562 -18.902344 C 43.882812 -18.703125 43.773438 -18.378906 43.648438 -17.9375 C 43.894531 -18.816406 44.289062 -20.769531 44.84375 -23.800781 L 45.34375 -26.550781 L 66.25 -22.75 L 45.1875 -25.558594 C 45.542969 -28.25 46.574219 -34.859375 48.269531 -45.382812 L 51.152344 -63.25 L 131.417969 -63.25 L 124.492188 -19.957031 C 123.828125 -15.726562 123.332031 -12.539062 123 -10.394531 C 122.839844 -9.347656 122.722656 -8.566406 122.644531 -8.042969 C 122.613281 -7.832031 122.59375 -7.683594 122.582031 -7.605469 C 122.691406 -8.417969 122.75 -9.296875 122.75 -10.25 C 122.75 -12.1875 122.246094 -14.117188 121.238281 -16.042969 C 120.09375 -18.238281 118.53125 -19.964844 116.550781 -21.226562 C 115.597656 -21.835938 114.773438 -22.214844 114.074219 -22.363281 C 114.429688 -22.289062 115.070312 -22.25 116 -22.25 C 118.679688 -22.25 120.539062 -22.410156 121.566406 -22.730469 C 121.230469 -22.625 120.792969 -22.398438 120.25 -22.042969 C 119.035156 -21.253906 117.96875 -20.199219 117.054688 -18.886719 L 134.5 -6.75 L 116.402344 -17.886719 C 116.671875 -18.328125 116.863281 -18.667969 116.976562 -18.902344 C 116.882812 -18.703125 116.773438 -18.378906 116.648438 -17.9375 C 116.894531 -18.816406 117.289062 -20.769531 117.839844 -23.800781 L 118.339844 -26.550781 L 139.25 -22.75 L 118.183594 -25.558594 C 118.542969 -28.25 119.570312 -34.859375 121.269531 -45.382812 L 124.152344 -63.25 L 154.75 -63.25 C 155.914062 -63.25 156.820312 -63.308594 157.464844 -63.421875 L 157.472656 -63.410156 C 157.179688 -63.320312 156.855469 -63.183594 156.496094 -63.007812 L 166 -44 L 155.824219 -62.65625 C 153.558594 -61.417969 151.980469 -59.851562 151.097656 -57.949219 C 151.402344 -58.601562 151.644531 -59.433594 151.820312 -60.441406 C 152.105469 -62.054688 152.25 -63.699219 152.25 -65.375 C 152.25 -64.742188 152.382812 -63.976562 152.65625 -63.078125 C 153.222656 -61.195312 154.210938 -59.464844 155.617188 -57.882812 C 156.261719 -57.152344 157.078125 -56.476562 158.058594 -55.851562 C 159.746094 -54.78125 161.617188 -54.0625 163.679688 -53.699219 C 163.84375 -53.667969 163.953125 -53.652344 164.007812 -53.644531 C 163.871094 -53.660156 163.679688 -53.671875 163.433594 -53.6875 C 162.675781 -53.730469 161.695312 -53.75 160.5 -53.75 L 122.738281 -53.75 L 134.191406 -123.75 L 164.75 -123.75 C 167.136719 -123.75 168.621094 -123.800781 169.195312 -123.90625 C 166.875 -123.484375 164.867188 -122.648438 163.179688 -121.398438 C 162.652344 -121.007812 162.308594 -120.71875 162.15625 -120.523438 C 161.867188 -120.164062 161.707031 -119.890625 161.675781 -119.699219 C 162.058594 -121.933594 162.25 -123.90625 162.25 -125.625 C 162.25 -124.992188 162.382812 -124.222656 162.65625 -123.324219 C 163.222656 -121.445312 164.210938 -119.710938 165.617188 -118.132812 C 166.261719 -117.402344 167.078125 -116.726562 168.058594 -116.101562 C 169.746094 -115.027344 171.617188 -114.3125 173.679688 -113.945312 C 173.839844 -113.917969 173.953125 -113.902344 174.007812 -113.894531 C 173.871094 -113.910156 173.679688 -113.921875 173.433594 -113.9375 C 172.675781 -113.976562 171.695312 -114 170.5 -114 Z M 91.027344 -78.429688 L 95.527344 -105.929688 L 116.5 -102.5 L 116.5 -81.25 L 79.5 -81.25 L 79.5 -102.5 L 100.4375 -98.882812 L 95.6875 -71.382812 L 74.75 -75 L 74.75 -96.25 L 112 -96.25 L 112 -75 Z M 130.054688 -53.75 L 49.515625 -53.75 L 61.605469 -123.75 L 141.507812 -123.75 L 132.96875 -71.566406 Z M 130.054688 -53.75 "/></g></g><g style="fill:#181818;fill-opacity:1;"><g transform="translate(101.249596, 287.384393)"><path style="stroke:none" d="M 157.75 -135.25 L 170.5 -135.25 C 173.664062 -135.25 175.957031 -135.125 177.375 -134.875 C 178.789062 -134.625 180.164062 -133.75 181.5 -132.25 C 182.832031 -130.75 183.5 -128.539062 183.5 -125.625 C 183.5 -122.707031 183.207031 -119.539062 182.625 -116.125 C 182.039062 -112.707031 180.75 -109.75 178.75 -107.25 C 176.75 -104.75 174.832031 -103.332031 173 -103 C 171.164062 -102.664062 168.414062 -102.5 164.75 -102.5 L 152.25 -102.5 L 147.75 -75 L 160.5 -75 C 163.664062 -75 165.957031 -74.875 167.375 -74.625 C 168.789062 -74.375 170.164062 -73.5 171.5 -72 C 172.832031 -70.5 173.5 -68.289062 173.5 -65.375 C 173.5 -62.457031 173.25 -59.582031 172.75 -56.75 C 172.25 -53.914062 171.457031 -51.332031 170.375 -49 C 169.289062 -46.664062 167.832031 -45 166 -44 C 163.332031 -42.664062 159.582031 -42 154.75 -42 L 142.25 -42 C 140.582031 -31.664062 139.582031 -25.25 139.25 -22.75 L 138.75 -20 C 138.082031 -16.332031 137.539062 -13.75 137.125 -12.25 C 136.707031 -10.75 135.832031 -8.914062 134.5 -6.75 C 131.832031 -2.914062 125.664062 -1 116 -1 C 106.332031 -1 101.5 -4.082031 101.5 -10.25 C 101.5 -10.414062 102.164062 -14.75 103.5 -23.25 L 106.5 -42 L 69.25 -42 C 67.582031 -31.664062 66.582031 -25.25 66.25 -22.75 L 65.75 -20 C 65.082031 -16.332031 64.539062 -13.75 64.125 -12.25 C 63.707031 -10.75 62.832031 -8.914062 61.5 -6.75 C 58.832031 -2.914062 52.664062 -1 43 -1 C 33.332031 -1 28.5 -4.082031 28.5 -10.25 C 28.5 -10.414062 29.164062 -14.75 30.5 -23.25 L 33.5 -42 L 17 -42 C 10 -42 5.832031 -43.5 4.5 -46.5 C 4 -47.832031 3.75 -49.789062 3.75 -52.375 C 3.75 -54.957031 4.039062 -57.957031 4.625 -61.375 C 5.207031 -64.789062 6.539062 -67.75 8.625 -70.25 C 10.707031 -72.75 12.664062 -74.164062 14.5 -74.5 C 16.332031 -74.832031 19.082031 -75 22.75 -75 L 39 -75 L 43.5 -102.5 L 27 -102.5 C 19.832031 -102.5 15.664062 -103.914062 14.5 -106.75 C 14 -108.25 13.75 -110.25 13.75 -112.75 C 13.75 -115.25 14.039062 -118.207031 14.625 -121.625 C 15.207031 -125.039062 16.539062 -128 18.625 -130.5 C 20.707031 -133 22.664062 -134.414062 24.5 -134.75 C 26.332031 -135.082031 29.082031 -135.25 32.75 -135.25 L 49 -135.25 L 53.25 -161 C 53.414062 -162 53.625 -163.625 53.875 -165.875 C 54.125 -168.125 54.375 -169.707031 54.625 -170.625 C 54.875 -171.539062 55.25 -172.832031 55.75 -174.5 C 56.25 -176.164062 56.957031 -177.332031 57.875 -178 C 58.789062 -178.664062 60 -179.5 61.5 -180.5 C 63.832031 -182 68.082031 -182.75 74.25 -182.75 C 80.414062 -182.75 84.707031 -181.875 87.125 -180.125 C 89.539062 -178.375 90.75 -175.75 90.75 -172.25 C 90.75 -171.75 90.332031 -168.832031 89.5 -163.5 L 84.75 -135.25 L 122 -135.25 L 126.25 -161 C 126.414062 -162 126.625 -163.625 126.875 -165.875 C 127.125 -168.125 127.375 -169.707031 127.625 -170.625 C 127.875 -171.539062 128.25 -172.832031 128.75 -174.5 C 129.25 -176.164062 129.957031 -177.332031 130.875 -178 C 131.789062 -178.664062 133 -179.5 134.5 -180.5 C 136.832031 -182 141.082031 -182.75 147.25 -182.75 C 153.414062 -182.75 157.707031 -181.875 160.125 -180.125 C 162.539062 -178.375 163.75 -175.75 163.75 -172.25 C 163.75 -171.75 163.332031 -168.832031 162.5 -163.5 Z M 112 -75 L 116.5 -102.5 L 79.5 -102.5 L 74.75 -75 Z M 112 -75 "/></g></g><g style="fill:#ffffff;fill-opacity:1;"><g transform="translate(95.500392, 280.400002)"><path style="stroke:none" d="M 157.75 -135.25 L 170.5 -135.25 C 173.664062 -135.25 175.957031 -135.125 177.375 -134.875 C 178.789062 -134.625 180.164062 -133.75 181.5 -132.25 C 182.832031 -130.75 183.5 -128.539062 183.5 -125.625 C 183.5 -122.707031 183.207031 -119.539062 182.625 -116.125 C 182.039062 -112.707031 180.75 -109.75 178.75 -107.25 C 176.75 -104.75 174.832031 -103.332031 173 -103 C 171.164062 -102.664062 168.414062 -102.5 164.75 -102.5 L 152.25 -102.5 L 147.75 -75 L 160.5 -75 C 163.664062 -75 165.957031 -74.875 167.375 -74.625 C 168.789062 -74.375 170.164062 -73.5 171.5 -72 C 172.832031 -70.5 173.5 -68.289062 173.5 -65.375 C 173.5 -62.457031 173.25 -59.582031 172.75 -56.75 C 172.25 -53.914062 171.457031 -51.332031 170.375 -49 C 169.289062 -46.664062 167.832031 -45 166 -44 C 163.332031 -42.664062 159.582031 -42 154.75 -42 L 142.25 -42 C 140.582031 -31.664062 139.582031 -25.25 139.25 -22.75 L 138.75 -20 C 138.082031 -16.332031 137.539062 -13.75 137.125 -12.25 C 136.707031 -10.75 135.832031 -8.914062 134.5 -6.75 C 131.832031 -2.914062 125.664062 -1 116 -1 C 106.332031 -1 101.5 -4.082031 101.5 -10.25 C 101.5 -10.414062 102.164062 -14.75 103.5 -23.25 L 106.5 -42 L 69.25 -42 C 67.582031 -31.664062 66.582031 -25.25 66.25 -22.75 L 65.75 -20 C 65.082031 -16.332031 64.539062 -13.75 64.125 -12.25 C 63.707031 -10.75 62.832031 -8.914062 61.5 -6.75 C 58.832031 -2.914062 52.664062 -1 43 -1 C 33.332031 -1 28.5 -4.082031 28.5 -10.25 C 28.5 -10.414062 29.164062 -14.75 30.5 -23.25 L 33.5 -42 L 17 -42 C 10 -42 5.832031 -43.5 4.5 -46.5 C 4 -47.832031 3.75 -49.789062 3.75 -52.375 C 3.75 -54.957031 4.039062 -57.957031 4.625 -61.375 C 5.207031 -64.789062 6.539062 -67.75 8.625 -70.25 C 10.707031 -72.75 12.664062 -74.164062 14.5 -74.5 C 16.332031 -74.832031 19.082031 -75 22.75 -75 L 39 -75 L 43.5 -102.5 L 27 -102.5 C 19.832031 -102.5 15.664062 -103.914062 14.5 -106.75 C 14 -108.25 13.75 -110.25 13.75 -112.75 C 13.75 -115.25 14.039062 -118.207031 14.625 -121.625 C 15.207031 -125.039062 16.539062 -128 18.625 -130.5 C 20.707031 -133 22.664062 -134.414062 24.5 -134.75 C 26.332031 -135.082031 29.082031 -135.25 32.75 -135.25 L 49 -135.25 L 53.25 -161 C 53.414062 -162 53.625 -163.625 53.875 -165.875 C 54.125 -168.125 54.375 -169.707031 54.625 -170.625 C 54.875 -171.539062 55.25 -172.832031 55.75 -174.5 C 56.25 -176.164062 56.957031 -177.332031 57.875 -178 C 58.789062 -178.664062 60 -179.5 61.5 -180.5 C 63.832031 -182 68.082031 -182.75 74.25 -182.75 C 80.414062 -182.75 84.707031 -181.875 87.125 -180.125 C 89.539062 -178.375 90.75 -175.75 90.75 -172.25 C 90.75 -171.75 90.332031 -168.832031 89.5 -163.5 L 84.75 -135.25 L 122 -135.25 L 126.25 -161 C 126.414062 -162 126.625 -163.625 126.875 -165.875 C 127.125 -168.125 127.375 -169.707031 127.625 -170.625 C 127.875 -171.539062 128.25 -172.832031 128.75 -174.5 C 129.25 -176.164062 129.957031 -177.332031 130.875 -178 C 131.789062 -178.664062 133 -179.5 134.5 -180.5 C 136.832031 -182 141.082031 -182.75 147.25 -182.75 C 153.414062 -182.75 157.707031 -181.875 160.125 -180.125 C 162.539062 -178.375 163.75 -175.75 163.75 -172.25 C 163.75 -171.75 163.332031 -168.832031 162.5 -163.5 Z M 112 -75 L 116.5 -102.5 L 79.5 -102.5 L 74.75 -75 Z M 112 -75 "/></g></g></g></svg>