<svg xmlns="http://www.w3.org/2000/svg" xmlns:xlink="http://www.w3.org/1999/xlink" width="512" zoomAndPan="magnify" viewBox="0 0 384 383.999986" height="512" preserveAspectRatio="xMidYMid meet" version="1.2"><defs/><g id="32b1eba722"><g style="fill:#181818;fill-opacity:1;"><g transform="translate(134.952726, 253.992181)"><path style="stroke:none" d="M 100.957031 -100.160156 L 109.117188 -100.160156 C 111.9375 -100.160156 114.191406 -100.007812 115.882812 -99.710938 C 119.894531 -99.003906 123.375 -96.992188 126.324219 -93.675781 C 129.464844 -90.136719 131.039062 -85.710938 131.039062 -80.398438 C 131.039062 -77.765625 130.785156 -74.972656 130.285156 -72.03125 C 129.515625 -67.535156 127.761719 -63.570312 125.019531 -60.144531 C 121.617188 -55.894531 117.664062 -53.359375 113.152344 -52.539062 C 111.171875 -52.179688 108.601562 -52 105.4375 -52 L 97.4375 -52 L 97.4375 -65.597656 L 110.859375 -63.402344 L 107.980469 -45.804688 L 94.558594 -48 L 94.558594 -61.597656 L 102.71875 -61.597656 C 105.539062 -61.597656 107.792969 -61.449219 109.480469 -61.152344 C 113.492188 -60.445312 116.972656 -58.433594 119.921875 -55.113281 C 123.066406 -51.578125 124.636719 -47.152344 124.636719 -41.839844 C 124.636719 -39.179688 124.410156 -36.550781 123.953125 -33.957031 C 123.425781 -30.976562 122.566406 -28.199219 121.375 -25.632812 C 119.421875 -21.429688 116.546875 -18.292969 112.75 -16.21875 L 112.539062 -16.105469 L 112.320312 -15.996094 C 108.699219 -14.183594 104.273438 -13.28125 99.039062 -13.28125 L 91.039062 -13.28125 L 91.039062 -26.878906 L 104.464844 -24.714844 C 103.417969 -18.222656 102.796875 -14.238281 102.597656 -12.761719 L 102.558594 -12.445312 L 102.179688 -10.367188 C 101.679688 -7.613281 101.238281 -5.558594 100.863281 -4.199219 C 100.253906 -2.003906 99.1875 0.332031 97.660156 2.808594 L 97.460938 3.132812 L 97.242188 3.445312 C 92.832031 9.789062 85.164062 12.960938 74.238281 12.960938 C 68.5 12.960938 63.742188 11.753906 59.964844 9.34375 C 57.152344 7.550781 54.992188 5.210938 53.484375 2.328125 C 52.066406 -0.382812 51.359375 -3.347656 51.359375 -6.558594 C 51.359375 -7.375 51.839844 -10.847656 52.804688 -16.988281 L 54.730469 -29.027344 L 68.160156 -26.878906 L 68.160156 -13.28125 L 44.320312 -13.28125 L 44.320312 -26.878906 L 57.746094 -24.714844 C 56.699219 -18.222656 56.078125 -14.238281 55.878906 -12.761719 L 55.835938 -12.445312 L 55.460938 -10.367188 C 54.960938 -7.613281 54.519531 -5.558594 54.144531 -4.199219 C 53.535156 -2.003906 52.464844 0.332031 50.941406 2.808594 L 50.742188 3.132812 L 50.523438 3.445312 C 46.113281 9.789062 38.445312 12.960938 27.519531 12.960938 C 21.78125 12.960938 17.023438 11.753906 13.246094 9.34375 C 10.433594 7.550781 8.273438 5.210938 6.765625 2.328125 C 5.347656 -0.382812 4.640625 -3.347656 4.640625 -6.558594 C 4.640625 -7.375 5.121094 -10.847656 6.085938 -16.988281 L 8.011719 -29.027344 L 21.441406 -26.878906 L 21.441406 -13.28125 L 10.878906 -13.28125 C 7.058594 -13.28125 3.734375 -13.789062 0.914062 -14.804688 C -1.21875 -15.570312 -3.105469 -16.628906 -4.753906 -17.972656 C -6.859375 -19.699219 -8.460938 -21.785156 -9.546875 -24.234375 L -9.710938 -24.605469 L -9.855469 -24.984375 C -10.75 -27.378906 -11.199219 -30.222656 -11.199219 -33.519531 C -11.199219 -35.941406 -10.949219 -38.625 -10.445312 -41.566406 C -9.664062 -46.160156 -7.824219 -50.191406 -4.929688 -53.664062 C -1.488281 -57.792969 2.4375 -60.257812 6.847656 -61.058594 C 8.824219 -61.417969 11.394531 -61.597656 14.558594 -61.597656 L 24.960938 -61.597656 L 24.960938 -48 L 11.539062 -50.195312 L 14.417969 -67.796875 L 27.839844 -65.597656 L 27.839844 -52 L 17.28125 -52 C 13.488281 -52 10.214844 -52.46875 7.460938 -53.402344 C 5.300781 -54.136719 3.386719 -55.167969 1.722656 -56.492188 C -0.539062 -58.296875 -2.214844 -60.515625 -3.296875 -63.140625 L -3.472656 -63.574219 L -3.621094 -64.019531 C -4.40625 -66.375 -4.800781 -69.085938 -4.800781 -72.160156 C -4.800781 -74.527344 -4.546875 -77.183594 -4.046875 -80.128906 C -3.261719 -84.71875 -1.421875 -88.75 1.472656 -92.226562 C 4.910156 -96.351562 8.835938 -98.816406 13.246094 -99.621094 C 15.222656 -99.980469 17.796875 -100.160156 20.960938 -100.160156 L 31.359375 -100.160156 L 31.359375 -86.558594 L 17.941406 -88.773438 L 20.660156 -105.253906 C 20.730469 -105.664062 20.828125 -106.464844 20.960938 -107.660156 C 21.199219 -109.800781 21.492188 -111.507812 21.839844 -112.777344 C 22.027344 -113.472656 22.300781 -114.410156 22.652344 -115.585938 C 23.851562 -119.582031 25.980469 -122.691406 29.039062 -124.917969 C 29.777344 -125.453125 30.703125 -126.089844 31.816406 -126.835938 C 35.675781 -129.316406 40.910156 -130.558594 47.519531 -130.558594 C 54.402344 -130.558594 59.808594 -129.136719 63.734375 -126.292969 C 66.433594 -124.339844 68.472656 -121.863281 69.851562 -118.863281 C 71.070312 -116.21875 71.679688 -113.34375 71.679688 -110.238281 C 71.679688 -109.214844 71.359375 -106.648438 70.714844 -102.539062 L 67.652344 -84.304688 L 54.238281 -86.558594 L 54.238281 -100.160156 L 78.078125 -100.160156 L 78.078125 -86.558594 L 64.660156 -88.773438 L 67.378906 -105.253906 C 67.449219 -105.664062 67.550781 -106.464844 67.683594 -107.660156 C 67.921875 -109.800781 68.210938 -111.507812 68.558594 -112.777344 C 68.746094 -113.472656 69.019531 -114.410156 69.371094 -115.585938 C 70.570312 -119.582031 72.699219 -122.691406 75.757812 -124.917969 C 76.496094 -125.453125 77.421875 -126.089844 78.535156 -126.835938 C 82.394531 -129.316406 87.628906 -130.558594 94.238281 -130.558594 C 101.125 -130.558594 106.527344 -129.136719 110.453125 -126.292969 C 113.152344 -124.339844 115.191406 -121.863281 116.574219 -118.863281 C 117.789062 -116.21875 118.398438 -113.34375 118.398438 -110.238281 C 118.398438 -109.214844 118.078125 -106.648438 117.433594 -102.539062 L 114.371094 -84.304688 L 100.957031 -86.558594 Z M 84.878906 -72.957031 L 90.5625 -106.738281 C 90.820312 -108.386719 91.011719 -109.648438 91.136719 -110.523438 C 91.1875 -110.894531 91.226562 -111.171875 91.25 -111.355469 C 91.214844 -111.082031 91.199219 -110.710938 91.199219 -110.238281 C 91.199219 -109.371094 91.421875 -108.457031 91.863281 -107.492188 C 92.472656 -106.171875 93.351562 -105.097656 94.5 -104.261719 C 95.316406 -103.675781 95.996094 -103.324219 96.542969 -103.210938 C 96.066406 -103.308594 95.296875 -103.359375 94.238281 -103.359375 C 93.058594 -103.359375 92.179688 -103.308594 91.601562 -103.207031 C 91.578125 -103.199219 91.558594 -103.195312 91.542969 -103.195312 C 91.542969 -103.195312 91.546875 -103.195312 91.558594 -103.199219 C 91.632812 -103.214844 91.722656 -103.242188 91.828125 -103.277344 C 92.34375 -103.457031 92.941406 -103.761719 93.621094 -104.203125 C 92.816406 -103.664062 92.195312 -103.238281 91.757812 -102.917969 C 92.9375 -103.777344 93.886719 -104.796875 94.605469 -105.980469 C 94.976562 -106.597656 95.253906 -107.195312 95.425781 -107.769531 C 95.136719 -106.8125 94.929688 -106.097656 94.800781 -105.621094 C 94.839844 -105.773438 94.875 -105.90625 94.894531 -106.011719 C 94.890625 -105.992188 94.882812 -105.949219 94.871094 -105.878906 C 94.824219 -105.578125 94.773438 -105.167969 94.714844 -104.65625 C 94.527344 -102.972656 94.363281 -101.691406 94.21875 -100.824219 L 89.617188 -72.957031 L 38.160156 -72.957031 L 43.84375 -106.738281 C 44.101562 -108.386719 44.289062 -109.648438 44.414062 -110.523438 C 44.46875 -110.894531 44.507812 -111.171875 44.527344 -111.355469 C 44.496094 -111.082031 44.480469 -110.710938 44.480469 -110.238281 C 44.480469 -109.371094 44.699219 -108.457031 45.144531 -107.492188 C 45.753906 -106.171875 46.632812 -105.097656 47.78125 -104.261719 C 48.597656 -103.675781 49.277344 -103.324219 49.820312 -103.210938 C 49.34375 -103.308594 48.578125 -103.359375 47.519531 -103.359375 C 46.339844 -103.359375 45.460938 -103.308594 44.882812 -103.207031 C 44.859375 -103.199219 44.839844 -103.195312 44.824219 -103.195312 C 44.824219 -103.195312 44.828125 -103.195312 44.839844 -103.199219 C 44.914062 -103.214844 45.003906 -103.242188 45.109375 -103.277344 C 45.625 -103.457031 46.222656 -103.761719 46.902344 -104.203125 C 46.097656 -103.664062 45.476562 -103.238281 45.039062 -102.917969 C 46.21875 -103.777344 47.167969 -104.796875 47.882812 -105.980469 C 48.257812 -106.597656 48.53125 -107.195312 48.707031 -107.769531 C 48.417969 -106.8125 48.210938 -106.097656 48.082031 -105.621094 C 48.121094 -105.773438 48.152344 -105.90625 48.175781 -106.011719 C 48.171875 -105.992188 48.164062 -105.949219 48.152344 -105.878906 C 48.105469 -105.578125 48.054688 -105.167969 47.996094 -104.65625 C 47.808594 -102.972656 47.644531 -101.691406 47.496094 -100.824219 L 42.898438 -72.957031 L 20.960938 -72.957031 C 19.429688 -72.957031 18.480469 -72.925781 18.113281 -72.859375 C 19.550781 -73.121094 20.789062 -73.625 21.832031 -74.378906 C 22.046875 -74.535156 22.226562 -74.683594 22.371094 -74.820312 L 22.367188 -74.8125 C 22.597656 -75.085938 22.730469 -75.332031 22.765625 -75.550781 C 22.523438 -74.121094 22.398438 -72.992188 22.398438 -72.160156 C 22.398438 -71.921875 22.40625 -71.765625 22.414062 -71.6875 C 22.382812 -71.9375 22.304688 -72.246094 22.183594 -72.621094 L 9.28125 -68.320312 L 21.855469 -73.496094 C 21.148438 -75.21875 20.085938 -76.640625 18.675781 -77.765625 C 17.867188 -78.410156 17.046875 -78.875 16.21875 -79.15625 C 16.058594 -79.210938 15.917969 -79.25 15.800781 -79.273438 C 15.804688 -79.273438 15.832031 -79.269531 15.886719 -79.265625 C 16.234375 -79.21875 16.699219 -79.199219 17.28125 -79.199219 L 43.847656 -79.199219 L 36.515625 -34.398438 L 14.558594 -34.398438 C 13.03125 -34.398438 12.082031 -34.367188 11.710938 -34.296875 C 13.152344 -34.558594 14.390625 -35.066406 15.429688 -35.820312 C 15.644531 -35.976562 15.824219 -36.121094 15.96875 -36.261719 L 15.96875 -36.253906 C 16.195312 -36.527344 16.328125 -36.773438 16.367188 -36.992188 C 16.121094 -35.5625 16 -34.40625 16 -33.519531 C 16 -33.269531 16.003906 -33.117188 16.011719 -33.0625 C 15.957031 -33.480469 15.824219 -33.972656 15.613281 -34.535156 L 2.878906 -29.757812 L 15.308594 -35.28125 C 14.644531 -36.773438 13.699219 -38.019531 12.472656 -39.023438 C 11.707031 -39.652344 10.925781 -40.109375 10.125 -40.394531 C 9.953125 -40.457031 9.796875 -40.503906 9.664062 -40.535156 L 9.671875 -40.539062 C 9.964844 -40.5 10.367188 -40.480469 10.878906 -40.480469 L 37.386719 -40.480469 L 32.957031 -12.773438 C 32.53125 -10.066406 32.214844 -8.027344 32 -6.652344 C 31.898438 -5.984375 31.824219 -5.480469 31.773438 -5.148438 C 31.753906 -5.011719 31.738281 -4.917969 31.730469 -4.867188 C 31.804688 -5.386719 31.839844 -5.949219 31.839844 -6.558594 C 31.839844 -7.800781 31.519531 -9.035156 30.875 -10.269531 C 30.140625 -11.671875 29.140625 -12.777344 27.875 -13.585938 C 27.261719 -13.976562 26.734375 -14.21875 26.289062 -14.3125 C 26.515625 -14.265625 26.925781 -14.238281 27.519531 -14.238281 C 29.234375 -14.238281 30.425781 -14.34375 31.082031 -14.546875 C 30.867188 -14.480469 30.585938 -14.335938 30.238281 -14.109375 C 29.460938 -13.601562 28.78125 -12.925781 28.195312 -12.085938 L 39.359375 -4.320312 L 27.777344 -11.449219 C 27.949219 -11.730469 28.074219 -11.945312 28.144531 -12.097656 C 28.085938 -11.96875 28.015625 -11.761719 27.933594 -11.480469 C 28.089844 -12.042969 28.347656 -13.292969 28.699219 -15.234375 L 29.019531 -16.992188 L 42.398438 -14.558594 L 28.917969 -16.355469 C 29.148438 -18.082031 29.804688 -22.308594 30.894531 -29.046875 L 32.738281 -40.480469 L 84.109375 -40.480469 L 79.675781 -12.773438 C 79.25 -10.066406 78.933594 -8.027344 78.722656 -6.652344 C 78.617188 -5.984375 78.542969 -5.480469 78.492188 -5.148438 C 78.472656 -5.011719 78.457031 -4.917969 78.453125 -4.867188 C 78.523438 -5.386719 78.558594 -5.949219 78.558594 -6.558594 C 78.558594 -7.800781 78.238281 -9.035156 77.59375 -10.269531 C 76.859375 -11.671875 75.859375 -12.777344 74.59375 -13.585938 C 73.980469 -13.976562 73.453125 -14.21875 73.007812 -14.3125 C 73.234375 -14.265625 73.644531 -14.238281 74.238281 -14.238281 C 75.957031 -14.238281 77.144531 -14.34375 77.800781 -14.546875 C 77.585938 -14.480469 77.308594 -14.335938 76.960938 -14.109375 C 76.179688 -13.601562 75.5 -12.925781 74.914062 -12.085938 L 86.078125 -4.320312 L 74.496094 -11.449219 C 74.667969 -11.730469 74.792969 -11.945312 74.863281 -12.097656 C 74.804688 -11.96875 74.734375 -11.761719 74.65625 -11.480469 C 74.8125 -12.042969 75.066406 -13.292969 75.417969 -15.234375 L 75.738281 -16.992188 L 89.117188 -14.558594 L 75.636719 -16.355469 C 75.867188 -18.082031 76.527344 -22.308594 77.613281 -29.046875 L 79.457031 -40.480469 L 99.039062 -40.480469 C 99.785156 -40.480469 100.367188 -40.515625 100.777344 -40.589844 L 100.78125 -40.582031 C 100.59375 -40.523438 100.386719 -40.4375 100.15625 -40.324219 L 106.238281 -28.160156 L 99.726562 -40.097656 C 98.277344 -39.308594 97.269531 -38.304688 96.703125 -37.085938 C 96.898438 -37.503906 97.050781 -38.035156 97.164062 -38.683594 C 97.347656 -39.714844 97.4375 -40.765625 97.4375 -41.839844 C 97.4375 -41.433594 97.523438 -40.945312 97.699219 -40.367188 C 98.0625 -39.164062 98.695312 -38.054688 99.59375 -37.042969 C 100.007812 -36.578125 100.527344 -36.144531 101.15625 -35.746094 C 102.234375 -35.058594 103.433594 -34.597656 104.753906 -34.367188 C 104.859375 -34.347656 104.929688 -34.335938 104.964844 -34.332031 C 104.878906 -34.34375 104.753906 -34.351562 104.597656 -34.359375 C 104.109375 -34.386719 103.484375 -34.398438 102.71875 -34.398438 L 78.550781 -34.398438 L 85.882812 -79.199219 L 105.4375 -79.199219 C 106.96875 -79.199219 107.917969 -79.234375 108.285156 -79.300781 C 106.800781 -79.03125 105.515625 -78.496094 104.433594 -77.695312 C 104.097656 -77.445312 103.878906 -77.257812 103.777344 -77.132812 C 103.59375 -76.90625 103.492188 -76.730469 103.472656 -76.609375 C 103.714844 -78.035156 103.839844 -79.300781 103.839844 -80.398438 C 103.839844 -79.992188 103.925781 -79.503906 104.097656 -78.929688 C 104.460938 -77.722656 105.09375 -76.617188 105.992188 -75.601562 C 106.40625 -75.136719 106.929688 -74.703125 107.558594 -74.304688 C 108.636719 -73.617188 109.835938 -73.160156 111.15625 -72.925781 C 111.257812 -72.90625 111.328125 -72.894531 111.363281 -72.894531 C 111.277344 -72.902344 111.15625 -72.910156 110.996094 -72.917969 C 110.511719 -72.945312 109.882812 -72.957031 109.117188 -72.957031 Z M 58.257812 -50.195312 L 61.136719 -67.796875 L 74.558594 -65.597656 L 74.558594 -52 L 50.878906 -52 L 50.878906 -65.597656 L 64.28125 -63.285156 L 61.242188 -45.683594 L 47.839844 -48 L 47.839844 -61.597656 L 71.679688 -61.597656 L 71.679688 -48 Z M 83.234375 -34.398438 L 31.6875 -34.398438 L 39.425781 -79.199219 L 90.566406 -79.199219 L 85.101562 -45.804688 Z M 83.234375 -34.398438 "/></g></g><g style="fill:#181818;fill-opacity:1;"><g transform="translate(134.952726, 253.992181)"><path style="stroke:none" d="M 100.953125 -86.5625 L 109.125 -86.5625 C 111.144531 -86.5625 112.609375 -86.476562 113.515625 -86.3125 C 114.421875 -86.15625 115.300781 -85.597656 116.15625 -84.640625 C 117.007812 -83.679688 117.4375 -82.265625 117.4375 -80.390625 C 117.4375 -78.523438 117.25 -76.5 116.875 -74.3125 C 116.5 -72.132812 115.671875 -70.242188 114.390625 -68.640625 C 113.117188 -67.035156 111.894531 -66.125 110.71875 -65.90625 C 109.539062 -65.695312 107.78125 -65.59375 105.4375 -65.59375 L 97.4375 -65.59375 L 94.5625 -48 L 102.71875 -48 C 104.75 -48 106.21875 -47.914062 107.125 -47.75 C 108.03125 -47.59375 108.910156 -47.035156 109.765625 -46.078125 C 110.617188 -45.117188 111.046875 -43.707031 111.046875 -41.84375 C 111.046875 -39.976562 110.882812 -38.132812 110.5625 -36.3125 C 110.238281 -34.5 109.726562 -32.847656 109.03125 -31.359375 C 108.34375 -29.867188 107.410156 -28.800781 106.234375 -28.15625 C 104.535156 -27.300781 102.140625 -26.875 99.046875 -26.875 L 91.046875 -26.875 C 89.972656 -20.257812 89.332031 -16.15625 89.125 -14.5625 L 88.796875 -12.796875 C 88.367188 -10.453125 88.019531 -8.800781 87.75 -7.84375 C 87.488281 -6.882812 86.929688 -5.707031 86.078125 -4.3125 C 84.367188 -1.863281 80.421875 -0.640625 74.234375 -0.640625 C 68.046875 -0.640625 64.953125 -2.613281 64.953125 -6.5625 C 64.953125 -6.664062 65.378906 -9.4375 66.234375 -14.875 L 68.15625 -26.875 L 44.3125 -26.875 C 43.25 -20.257812 42.613281 -16.15625 42.40625 -14.5625 L 42.078125 -12.796875 C 41.648438 -10.453125 41.300781 -8.800781 41.03125 -7.84375 C 40.769531 -6.882812 40.210938 -5.707031 39.359375 -4.3125 C 37.648438 -1.863281 33.703125 -0.640625 27.515625 -0.640625 C 21.328125 -0.640625 18.234375 -2.613281 18.234375 -6.5625 C 18.234375 -6.664062 18.660156 -9.4375 19.515625 -14.875 L 21.4375 -26.875 L 10.875 -26.875 C 6.394531 -26.875 3.726562 -27.835938 2.875 -29.765625 C 2.5625 -30.617188 2.40625 -31.867188 2.40625 -33.515625 C 2.40625 -35.171875 2.585938 -37.09375 2.953125 -39.28125 C 3.328125 -41.46875 4.179688 -43.359375 5.515625 -44.953125 C 6.847656 -46.554688 8.101562 -47.460938 9.28125 -47.671875 C 10.457031 -47.890625 12.21875 -48 14.5625 -48 L 24.953125 -48 L 27.84375 -65.59375 L 17.28125 -65.59375 C 12.695312 -65.59375 10.03125 -66.5 9.28125 -68.3125 C 8.957031 -69.28125 8.796875 -70.5625 8.796875 -72.15625 C 8.796875 -73.757812 8.984375 -75.65625 9.359375 -77.84375 C 9.734375 -80.03125 10.585938 -81.921875 11.921875 -83.515625 C 13.253906 -85.117188 14.503906 -86.023438 15.671875 -86.234375 C 16.847656 -86.453125 18.609375 -86.5625 20.953125 -86.5625 L 31.359375 -86.5625 L 34.078125 -103.046875 C 34.179688 -103.679688 34.3125 -104.71875 34.46875 -106.15625 C 34.632812 -107.59375 34.796875 -108.601562 34.953125 -109.1875 C 35.117188 -109.78125 35.359375 -110.609375 35.671875 -111.671875 C 35.992188 -112.742188 36.445312 -113.492188 37.03125 -113.921875 C 37.625 -114.347656 38.398438 -114.878906 39.359375 -115.515625 C 40.847656 -116.472656 43.566406 -116.953125 47.515625 -116.953125 C 51.460938 -116.953125 54.207031 -116.390625 55.75 -115.265625 C 57.300781 -114.148438 58.078125 -112.472656 58.078125 -110.234375 C 58.078125 -109.921875 57.8125 -108.054688 57.28125 -104.640625 L 54.234375 -86.5625 L 78.078125 -86.5625 L 80.796875 -103.046875 C 80.898438 -103.679688 81.03125 -104.71875 81.1875 -106.15625 C 81.351562 -107.59375 81.515625 -108.601562 81.671875 -109.1875 C 81.835938 -109.78125 82.078125 -110.609375 82.390625 -111.671875 C 82.710938 -112.742188 83.164062 -113.492188 83.75 -113.921875 C 84.34375 -114.347656 85.117188 -114.878906 86.078125 -115.515625 C 87.566406 -116.472656 90.285156 -116.953125 94.234375 -116.953125 C 98.179688 -116.953125 100.925781 -116.390625 102.46875 -115.265625 C 104.019531 -114.148438 104.796875 -112.472656 104.796875 -110.234375 C 104.796875 -109.921875 104.53125 -108.054688 104 -104.640625 Z M 71.6875 -48 L 74.5625 -65.59375 L 50.875 -65.59375 L 47.84375 -48 Z M 71.6875 -48 "/></g></g><g style="fill:#ffffff;fill-opacity:1;"><g transform="translate(129.203522, 247.007786)"><path style="stroke:none" d="M 100.953125 -86.5625 L 109.125 -86.5625 C 111.144531 -86.5625 112.609375 -86.476562 113.515625 -86.3125 C 114.421875 -86.15625 115.300781 -85.597656 116.15625 -84.640625 C 117.007812 -83.679688 117.4375 -82.265625 117.4375 -80.390625 C 117.4375 -78.523438 117.25 -76.5 116.875 -74.3125 C 116.5 -72.132812 115.671875 -70.242188 114.390625 -68.640625 C 113.117188 -67.035156 111.894531 -66.125 110.71875 -65.90625 C 109.539062 -65.695312 107.78125 -65.59375 105.4375 -65.59375 L 97.4375 -65.59375 L 94.5625 -48 L 102.71875 -48 C 104.75 -48 106.21875 -47.914062 107.125 -47.75 C 108.03125 -47.59375 108.910156 -47.035156 109.765625 -46.078125 C 110.617188 -45.117188 111.046875 -43.707031 111.046875 -41.84375 C 111.046875 -39.976562 110.882812 -38.132812 110.5625 -36.3125 C 110.238281 -34.5 109.726562 -32.847656 109.03125 -31.359375 C 108.34375 -29.867188 107.410156 -28.800781 106.234375 -28.15625 C 104.535156 -27.300781 102.140625 -26.875 99.046875 -26.875 L 91.046875 -26.875 C 89.972656 -20.257812 89.332031 -16.15625 89.125 -14.5625 L 88.796875 -12.796875 C 88.367188 -10.453125 88.019531 -8.800781 87.75 -7.84375 C 87.488281 -6.882812 86.929688 -5.707031 86.078125 -4.3125 C 84.367188 -1.863281 80.421875 -0.640625 74.234375 -0.640625 C 68.046875 -0.640625 64.953125 -2.613281 64.953125 -6.5625 C 64.953125 -6.664062 65.378906 -9.4375 66.234375 -14.875 L 68.15625 -26.875 L 44.3125 -26.875 C 43.25 -20.257812 42.613281 -16.15625 42.40625 -14.5625 L 42.078125 -12.796875 C 41.648438 -10.453125 41.300781 -8.800781 41.03125 -7.84375 C 40.769531 -6.882812 40.210938 -5.707031 39.359375 -4.3125 C 37.648438 -1.863281 33.703125 -0.640625 27.515625 -0.640625 C 21.328125 -0.640625 18.234375 -2.613281 18.234375 -6.5625 C 18.234375 -6.664062 18.660156 -9.4375 19.515625 -14.875 L 21.4375 -26.875 L 10.875 -26.875 C 6.394531 -26.875 3.726562 -27.835938 2.875 -29.765625 C 2.5625 -30.617188 2.40625 -31.867188 2.40625 -33.515625 C 2.40625 -35.171875 2.585938 -37.09375 2.953125 -39.28125 C 3.328125 -41.46875 4.179688 -43.359375 5.515625 -44.953125 C 6.847656 -46.554688 8.101562 -47.460938 9.28125 -47.671875 C 10.457031 -47.890625 12.21875 -48 14.5625 -48 L 24.953125 -48 L 27.84375 -65.59375 L 17.28125 -65.59375 C 12.695312 -65.59375 10.03125 -66.5 9.28125 -68.3125 C 8.957031 -69.28125 8.796875 -70.5625 8.796875 -72.15625 C 8.796875 -73.757812 8.984375 -75.65625 9.359375 -77.84375 C 9.734375 -80.03125 10.585938 -81.921875 11.921875 -83.515625 C 13.253906 -85.117188 14.503906 -86.023438 15.671875 -86.234375 C 16.847656 -86.453125 18.609375 -86.5625 20.953125 -86.5625 L 31.359375 -86.5625 L 34.078125 -103.046875 C 34.179688 -103.679688 34.3125 -104.71875 34.46875 -106.15625 C 34.632812 -107.59375 34.796875 -108.601562 34.953125 -109.1875 C 35.117188 -109.78125 35.359375 -110.609375 35.671875 -111.671875 C 35.992188 -112.742188 36.445312 -113.492188 37.03125 -113.921875 C 37.625 -114.347656 38.398438 -114.878906 39.359375 -115.515625 C 40.847656 -116.472656 43.566406 -116.953125 47.515625 -116.953125 C 51.460938 -116.953125 54.207031 -116.390625 55.75 -115.265625 C 57.300781 -114.148438 58.078125 -112.472656 58.078125 -110.234375 C 58.078125 -109.921875 57.8125 -108.054688 57.28125 -104.640625 L 54.234375 -86.5625 L 78.078125 -86.5625 L 80.796875 -103.046875 C 80.898438 -103.679688 81.03125 -104.71875 81.1875 -106.15625 C 81.351562 -107.59375 81.515625 -108.601562 81.671875 -109.1875 C 81.835938 -109.78125 82.078125 -110.609375 82.390625 -111.671875 C 82.710938 -112.742188 83.164062 -113.492188 83.75 -113.921875 C 84.34375 -114.347656 85.117188 -114.878906 86.078125 -115.515625 C 87.566406 -116.472656 90.285156 -116.953125 94.234375 -116.953125 C 98.179688 -116.953125 100.925781 -116.390625 102.46875 -115.265625 C 104.019531 -114.148438 104.796875 -112.472656 104.796875 -110.234375 C 104.796875 -109.921875 104.53125 -108.054688 104 -104.640625 Z M 71.6875 -48 L 74.5625 -65.59375 L 50.875 -65.59375 L 47.84375 -48 Z M 71.6875 -48 "/></g></g></g></svg>