<svg width="31" height="32" viewBox="0 0 31 32" fill="none" xmlns="http://www.w3.org/2000/svg">
<path fill-rule="evenodd" clip-rule="evenodd" d="M6.74179 1.36621C12.2751 0.752769 17.8592 0.752769 23.3925 1.36621C26.6405 1.72887 29.2627 4.28709 29.6431 7.55287C30.3009 13.1653 30.3009 18.8347 29.6431 24.4471C29.2609 27.7129 26.6387 30.2693 23.3925 30.6338C17.8592 31.2472 12.2751 31.2472 6.74179 30.6338C3.49379 30.2693 0.871568 27.7129 0.491123 24.4471C-0.163708 18.8347 -0.163708 13.1652 0.491123 7.55287C0.871568 4.28709 3.49557 1.72887 6.74179 1.36621ZM23.0973 4.01509C17.7602 3.4235 12.374 3.4235 7.0369 4.01509C6.04889 4.1247 5.12668 4.5642 4.41926 5.26259C3.71184 5.96098 3.26053 6.87746 3.13823 7.86398C2.50593 13.2702 2.50593 18.7316 3.13823 24.1378C3.2609 25.124 3.71238 26.04 4.41976 26.7381C5.12715 27.4361 6.04915 27.8753 7.0369 27.9849C12.3293 28.5751 17.8049 28.5751 23.0973 27.9849C24.0848 27.875 25.0064 27.4356 25.7134 26.7376C26.4204 26.0396 26.8716 25.1237 26.9942 24.1378C27.6265 18.7316 27.6265 13.2702 26.9942 7.86398C26.8713 6.87837 26.4199 5.96291 25.7129 5.26527C25.0059 4.56762 24.0845 4.12847 23.0973 4.01865" fill="white"/>
<path d="M6.5 16C6.5 15.6685 6.6317 15.3505 6.86612 15.1161C7.10054 14.8817 7.41848 14.75 7.75 14.75H13.5717V8.92834C13.5717 8.59682 13.7034 8.27888 13.9378 8.04446C14.1722 7.81004 14.4901 7.67834 14.8217 7.67834C15.1532 7.67834 15.4711 7.81004 15.7055 8.04446C15.94 8.27888 16.0717 8.59682 16.0717 8.92834V14.75H21.8933C22.2249 14.75 22.5428 14.8817 22.7772 15.1161C23.0116 15.3505 23.1433 15.6685 23.1433 16C23.1433 16.3315 23.0116 16.6495 22.7772 16.8839C22.5428 17.1183 22.2249 17.25 21.8933 17.25H16.0717V23.0717C16.0717 23.4032 15.94 23.7211 15.7055 23.9556C15.4711 24.19 15.1532 24.3217 14.8217 24.3217C14.4901 24.3217 14.1722 24.19 13.9378 23.9556C13.7034 23.7211 13.5717 23.4032 13.5717 23.0717V17.25H7.75C7.41848 17.25 7.10054 17.1183 6.86612 16.8839C6.6317 16.6495 6.5 16.3315 6.5 16Z" fill="white"/>
</svg>
