<svg width="31" height="22" viewBox="0 0 31 22" fill="none" xmlns="http://www.w3.org/2000/svg">
<path d="M15.5 0.866935H6.50191C5.78149 0.866934 5.06815 1.0084 4.40272 1.28324C3.73729 1.55807 3.13285 1.96088 2.624 2.46859C2.11515 2.9763 1.71189 3.57895 1.43731 4.24203C1.16273 4.90511 1.02221 5.6156 1.02382 6.33282V15.6808C1.02382 17.1272 1.60097 18.5144 2.62831 19.5372C3.137 20.0436 3.7409 20.4453 4.40554 20.7194C5.07017 20.9935 5.78252 21.1346 6.50191 21.1346H15.5C16.9529 21.1346 18.3463 20.56 19.3736 19.5372C20.4009 18.5144 20.9781 17.1272 20.9781 15.6808V6.33434C20.9803 5.61681 20.8402 4.9059 20.5659 4.24238C20.2916 3.57886 19.8884 2.97577 19.3795 2.4677C18.8705 1.95962 18.2659 1.55655 17.6001 1.2816C16.9344 1.00665 16.2207 0.865215 15.5 0.865418M29.9762 7.11409V14.9041C29.9762 15.2833 29.868 15.6565 29.6638 15.9781C29.457 16.3007 29.1642 16.5596 28.8181 16.726C28.4743 16.8974 28.0871 16.9628 27.7057 16.9142C27.3298 16.8693 26.9732 16.7235 26.6741 16.4924L21.7598 12.5663C21.5238 12.373 21.3329 12.1307 21.2005 11.8564C21.0682 11.582 20.9975 11.2823 20.9933 10.978C20.9933 10.6746 21.0619 10.3757 21.196 10.1057C21.3362 9.85083 21.5282 9.62782 21.7598 9.45033L26.6741 5.5561C26.9732 5.32406 27.3306 5.17819 27.7072 5.13436C28.0882 5.08582 28.4752 5.15105 28.8181 5.32096C29.159 5.4838 29.4477 5.73767 29.6522 6.05427C29.8567 6.37087 29.9688 6.73777 29.9762 7.11409Z" stroke="white" stroke-width="1.5" stroke-linecap="round" stroke-linejoin="round"/>
</svg>
