<svg width="33" height="24" viewBox="0 0 33 24" fill="none" xmlns="http://www.w3.org/2000/svg">
<path d="M16.5 1.86694H7.50191C6.78149 1.86693 6.06815 2.0084 5.40272 2.28324C4.73729 2.55807 4.13285 2.96088 3.624 3.46859C3.11515 3.9763 2.71189 4.57895 2.43731 5.24203C2.16273 5.90511 2.02221 6.6156 2.02382 7.33282V16.6808C2.02382 18.1272 2.60097 19.5144 3.62831 20.5372C4.137 21.0436 4.7409 21.4453 5.40554 21.7194C6.07017 21.9935 6.78252 22.1346 7.50191 22.1346H16.5C17.9529 22.1346 19.3463 21.56 20.3736 20.5372C21.4009 19.5144 21.9781 18.1272 21.9781 16.6808V7.33434C21.9803 6.61681 21.8402 5.9059 21.5659 5.24238C21.2916 4.57886 20.8884 3.97577 20.3795 3.4677C19.8705 2.95962 19.2659 2.55655 18.6001 2.2816C17.9344 2.00665 17.2207 1.86521 16.5 1.86542M30.9762 8.11409V15.9041C30.9762 16.2833 30.868 16.6565 30.6638 16.9781C30.457 17.3007 30.1642 17.5596 29.8181 17.726C29.4743 17.8974 29.0871 17.9628 28.7057 17.9142C28.3298 17.8693 27.9732 17.7235 27.6741 17.4924L22.7598 13.5663C22.5238 13.373 22.3329 13.1307 22.2005 12.8564C22.0682 12.582 21.9975 12.2823 21.9933 11.978C21.9933 11.6746 22.0619 11.3757 22.196 11.1057C22.3362 10.8508 22.5282 10.6278 22.7598 10.4503L27.6741 6.5561C27.9732 6.32406 28.3306 6.17819 28.7072 6.13436C29.0882 6.08582 29.4752 6.15105 29.8181 6.32096C30.159 6.4838 30.4477 6.73767 30.6522 7.05427C30.8567 7.37087 30.9688 7.73777 30.9762 8.11409Z" fill="white"/>
<path d="M16.5 1.86694H7.50191C6.78149 1.86693 6.06815 2.0084 5.40272 2.28324C4.73729 2.55807 4.13285 2.96088 3.624 3.46859C3.11515 3.9763 2.71189 4.57895 2.43731 5.24203C2.16273 5.90511 2.02221 6.6156 2.02382 7.33282V16.6808C2.02382 18.1272 2.60097 19.5144 3.62831 20.5372C4.137 21.0436 4.7409 21.4453 5.40554 21.7194C6.07017 21.9935 6.78252 22.1346 7.50191 22.1346H16.5C17.9529 22.1346 19.3463 21.56 20.3736 20.5372C21.4009 19.5144 21.9781 18.1272 21.9781 16.6808V7.33434C21.9803 6.61681 21.8402 5.9059 21.5659 5.24238C21.2916 4.57886 20.8884 3.97577 20.3795 3.4677C19.8705 2.95962 19.2659 2.55655 18.6001 2.2816C17.9344 2.00665 17.2207 1.86521 16.5 1.86542M30.9762 8.11409V15.9041C30.9762 16.2833 30.868 16.6565 30.6638 16.9781C30.457 17.3007 30.1642 17.5596 29.8181 17.726C29.4743 17.8974 29.0871 17.9628 28.7057 17.9142C28.3298 17.8693 27.9732 17.7235 27.6741 17.4924L22.7598 13.5663C22.5238 13.373 22.3329 13.1307 22.2005 12.8564C22.0682 12.582 21.9975 12.2823 21.9933 11.978C21.9933 11.6746 22.0619 11.3757 22.196 11.1057C22.3362 10.8508 22.5282 10.6278 22.7598 10.4503L27.6741 6.5561C27.9732 6.32406 28.3306 6.17819 28.7072 6.13436C29.0882 6.08582 29.4752 6.15105 29.8181 6.32096C30.159 6.4838 30.4477 6.73767 30.6522 7.05427C30.8567 7.37087 30.9688 7.73777 30.9762 8.11409Z" stroke="white" stroke-width="1.5" stroke-linecap="round" stroke-linejoin="round"/>
</svg>
