<svg width="25" height="25" viewBox="0 0 25 25" fill="none" xmlns="http://www.w3.org/2000/svg">
<path d="M21.0403 19.7607L24.5801 23.2987C24.7452 23.4696 24.8365 23.6985 24.8344 23.9361C24.8324 24.1737 24.7371 24.401 24.569 24.569C24.401 24.7371 24.1737 24.8324 23.9361 24.8344C23.6985 24.8365 23.4696 24.7452 23.2987 24.5801L19.7588 21.0403C17.4457 23.0221 14.4548 24.031 11.4138 23.8552C8.37275 23.6795 5.51802 22.3327 3.4486 20.0975C1.37918 17.8623 0.255939 14.9124 0.314562 11.8669C0.373186 8.82137 1.60912 5.91693 3.76303 3.76303C5.91693 1.60912 8.82137 0.373186 11.8669 0.314562C14.9124 0.255939 17.8623 1.37918 20.0975 3.4486C22.3327 5.51802 23.6795 8.37275 23.8552 11.4138C24.031 14.4548 23.0221 17.4457 21.0403 19.7588V19.7607ZM12.0938 22.0625C14.7377 22.0625 17.2732 21.0123 19.1427 19.1427C21.0123 17.2732 22.0625 14.7377 22.0625 12.0938C22.0625 9.4499 21.0123 6.91431 19.1427 5.0448C17.2732 3.1753 14.7377 2.12503 12.0938 2.12503C9.4499 2.12503 6.91431 3.1753 5.0448 5.0448C3.1753 6.91431 2.12503 9.4499 2.12503 12.0938C2.12503 14.7377 3.1753 17.2732 5.0448 19.1427C6.91431 21.0123 9.4499 22.0625 12.0938 22.0625Z" fill="white"/>
</svg>
