<svg width="29" height="31" viewBox="0 0 29 31" fill="none" xmlns="http://www.w3.org/2000/svg">
<path d="M16.7102 3.5C19.1303 3.50002 21.4511 4.4616 23.1624 6.17285C24.8736 7.88412 25.8352 10.2049 25.8352 12.625V17.9189L28.3928 23.0342C28.47 23.1886 28.507 23.3608 28.4993 23.5332C28.4934 23.6625 28.4626 23.7891 28.4094 23.9062L28.3489 24.0195C28.2581 24.1664 28.1315 24.288 27.9807 24.3721C27.83 24.4561 27.6601 24.5 27.4875 24.5H21.6497L21.553 24.875C21.2749 25.9477 20.6481 26.898 19.7717 27.5762C18.8953 28.2543 17.8184 28.6221 16.7102 28.6221C15.602 28.6221 14.5251 28.2543 13.6487 27.5762C12.7723 26.898 12.1455 25.9477 11.8674 24.875L11.7708 24.5H5.93286L5.80396 24.4922C5.67641 24.4758 5.55271 24.4351 5.4397 24.3721C5.28893 24.288 5.16228 24.1664 5.07153 24.0195C4.98088 23.8728 4.92893 23.7055 4.92114 23.5332C4.91339 23.3608 4.94941 23.1886 5.02661 23.0342H5.02759L7.58521 17.9189V12.625C7.58521 10.2049 8.54679 7.88412 10.2581 6.17285C11.9693 4.4616 14.2901 3.5 16.7102 3.5ZM13.8958 25.25C14.181 25.744 14.5912 26.1542 15.0852 26.4395C15.5793 26.7247 16.1397 26.875 16.7102 26.875C17.2806 26.875 17.8412 26.7247 18.3352 26.4395C18.8292 26.1542 19.2394 25.744 19.5247 25.25L19.9573 24.5H13.4622L13.8958 25.25ZM16.7102 5.25C14.7542 5.25 12.8784 6.0271 11.4954 7.41016C10.1123 8.79324 9.33521 10.669 9.33521 12.625V17.8008C9.33513 18.1498 9.25394 18.4944 9.0979 18.8066L7.48853 22.0264L7.1272 22.75H26.2942L25.9329 22.0264L24.3235 18.8066V18.8057C24.1866 18.5325 24.1071 18.2347 24.0891 17.9307L24.0852 17.7998V12.625C24.0852 10.669 23.3081 8.79323 21.925 7.41016C20.542 6.02709 18.6662 5.25002 16.7102 5.25Z" stroke="white"/>
</svg>
