<svg width="36" height="36" viewBox="0 0 36 36" fill="none" xmlns="http://www.w3.org/2000/svg">
<path opacity="0.5" d="M20.3745 8.415C21.2055 8.298 21.681 8.3295 22.038 8.445C22.605 8.628 23.1105 8.958 23.505 9.3945C22.902 9.375 22.23 9.375 21.474 9.375H15.8775L16.9335 9.132C18.4605 8.7795 19.533 8.532 20.3745 8.415ZM7.125 17.7C7.125 16.4205 7.125 15.5295 7.182 14.835C7.2375 14.1555 7.3425 13.764 7.4925 13.4685C7.81617 12.8329 8.33289 12.3162 8.9685 11.9925C9.264 11.8425 9.6555 11.7375 10.3365 11.682C11.0295 11.6265 11.922 11.625 13.2 11.625H21.3C23.319 11.625 24.3375 11.634 25.053 11.817L26.73 12.246L26.4405 10.539C26.331 9.891 26.148 9.3045 25.8255 8.769C25.1261 7.59963 24.0259 6.7239 22.7295 6.3045C21.9015 6.0375 21.033 6.051 20.0625 6.186C19.1115 6.3195 17.9415 6.5895 16.4805 6.927L11.2875 8.1255C10.326 8.3475 9.5445 8.5275 8.9145 8.7225C8.2605 8.9235 7.6965 9.162 7.1865 9.534C6.3668 10.132 5.72411 10.9405 5.3265 11.874C5.0775 12.4545 4.9725 13.059 4.923 13.7385C4.875 14.3985 4.875 15.1995 4.875 16.1865V17.7H7.125Z" fill="white"/>
<path d="M10.5 22.875C10.2016 22.875 9.91548 22.9935 9.7045 23.2045C9.49353 23.4155 9.375 23.7016 9.375 24C9.375 24.2984 9.49353 24.5845 9.7045 24.7955C9.91548 25.0065 10.2016 25.125 10.5 25.125H13.5C13.7984 25.125 14.0845 25.0065 14.2955 24.7955C14.5065 24.5845 14.625 24.2984 14.625 24C14.625 23.7016 14.5065 23.4155 14.2955 23.2045C14.0845 22.9935 13.7984 22.875 13.5 22.875H10.5Z" fill="white"/>
<path d="M13.152 9.375H21.7905C22.8045 9.375 23.6235 9.375 24.288 9.42C24.9735 9.4665 25.578 9.5655 26.1525 9.8025C26.8352 10.0852 27.4555 10.4996 27.9779 11.0221C28.5004 11.5445 28.9148 12.1648 29.1975 12.8475C29.4345 13.4205 29.5335 14.0265 29.58 14.7105C29.625 15.3585 29.625 16.1505 29.625 17.127C30.0745 17.3396 30.4544 17.6755 30.7205 18.0956C30.9865 18.5157 31.1277 19.0027 31.1277 19.5C31.1277 19.9973 30.9865 20.4843 30.7205 20.9044C30.4544 21.3245 30.0745 21.6604 29.625 21.873C29.625 22.848 29.625 23.6415 29.58 24.288C29.5335 24.9735 29.4345 25.578 29.1975 26.1525C28.9148 26.8352 28.5004 27.4555 27.9779 27.9779C27.4555 28.5004 26.8352 28.9148 26.1525 29.1975C25.5795 29.4345 24.9735 29.5335 24.2895 29.58C23.622 29.625 22.8045 29.625 21.7905 29.625H13.1505C11.9325 29.625 10.9485 29.625 10.1535 29.5605C9.333 29.493 8.613 29.3505 7.947 29.0115C6.88788 28.4724 6.0267 27.6118 5.487 26.553C5.148 25.887 5.007 25.167 4.9395 24.348C4.875 23.5515 4.875 22.5675 4.875 21.348V17.652C4.875 16.4325 4.875 15.4485 4.9395 14.652C5.007 13.833 5.1495 13.113 5.4885 12.447C6.02756 11.3879 6.88821 10.5267 7.947 9.987C8.613 9.648 9.333 9.507 10.152 9.4395C10.9485 9.375 11.9325 9.375 13.152 9.375ZM27.3345 14.865C27.2955 14.295 27.2235 13.962 27.1185 13.7085C26.9489 13.2989 26.7002 12.9267 26.3868 12.6132C26.0733 12.2998 25.7011 12.0511 25.2915 11.8815C25.038 11.7765 24.7065 11.7045 24.1365 11.6655C23.5545 11.625 22.8135 11.625 21.75 11.625H13.2C11.922 11.625 11.0295 11.625 10.335 11.682C9.6555 11.7375 9.264 11.8425 8.9685 11.9925C8.33289 12.3162 7.81617 12.8329 7.4925 13.4685C7.3425 13.764 7.2375 14.1555 7.182 14.8365C7.1265 15.5295 7.125 16.4205 7.125 17.7V21.3C7.125 22.5795 7.125 23.4705 7.182 24.165C7.2375 24.8445 7.3425 25.236 7.4925 25.533C7.8165 26.1675 8.3325 26.6835 8.9685 27.0075C9.264 27.1575 9.6555 27.2625 10.3365 27.318C11.0295 27.3735 11.922 27.375 13.2 27.375H21.75C22.815 27.375 23.556 27.375 24.135 27.3345C24.705 27.2955 25.038 27.2235 25.2915 27.1185C25.7011 26.9489 26.0733 26.7002 26.3868 26.3868C26.7002 26.0733 26.9489 25.7011 27.1185 25.2915C27.2235 25.038 27.2955 24.7065 27.3345 24.1365C27.369 23.6265 27.375 22.992 27.375 22.125H25.5C25.1553 22.125 24.8139 22.0571 24.4955 21.9252C24.177 21.7933 23.8876 21.5999 23.6438 21.3562C23.4001 21.1124 23.2067 20.823 23.0748 20.5045C22.9429 20.1861 22.875 19.8447 22.875 19.5C22.875 19.1553 22.9429 18.8139 23.0748 18.4955C23.2067 18.177 23.4001 17.8876 23.6438 17.6438C23.8876 17.4001 24.177 17.2067 24.4955 17.0748C24.8139 16.9429 25.1553 16.875 25.5 16.875H27.375C27.375 16.008 27.369 15.375 27.3345 14.865ZM25.5 19.125C25.4005 19.125 25.3052 19.1645 25.2348 19.2348C25.1645 19.3052 25.125 19.4005 25.125 19.5C25.125 19.5995 25.1645 19.6948 25.2348 19.7652C25.3052 19.8355 25.4005 19.875 25.5 19.875H28.5C28.5995 19.875 28.6948 19.8355 28.7652 19.7652C28.8355 19.6948 28.875 19.5995 28.875 19.5C28.875 19.4005 28.8355 19.3052 28.7652 19.2348C28.6948 19.1645 28.5995 19.125 28.5 19.125H25.5Z" fill="white"/>
</svg>
