<svg width="32" height="30" viewBox="0 0 32 30" fill="none" xmlns="http://www.w3.org/2000/svg">
<path d="M23.2002 0.820007C27.8525 0.820109 31.4999 4.45271 31.5 9.11981C31.5 11.9714 30.2189 14.606 27.8633 17.488C25.5021 20.3767 22.1142 23.453 17.9844 27.1979H17.9834L16 29.0026L14.0166 27.1979H14.0156C9.88581 23.453 6.49786 20.3767 4.13672 17.488C1.78107 14.606 0.5 11.9714 0.5 9.11981C0.500102 4.45271 4.14751 0.820109 8.7998 0.820007C11.4325 0.820007 13.9676 2.04815 15.6201 3.97333L16 4.41571L16.3799 3.97333C18.0324 2.04815 20.5675 0.820007 23.2002 0.820007Z" fill="#E74C3C" stroke="#E74C3C"/>
</svg>
