<svg width="16" height="22" viewBox="0 0 16 22" fill="none" xmlns="http://www.w3.org/2000/svg">
<g clip-path="url(#clip0_90_652)">
<path d="M10.0693 22L1.99996 13.5893V11.8466H5.99996C7.3484 11.8466 8.57463 11.4204 9.67863 10.568C10.7826 9.71552 11.3462 8.5004 11.3693 6.92263H0.666626V5.58929H11.2266C10.9511 4.53863 10.3342 3.67774 9.37596 3.00663C8.41774 2.33552 7.2924 1.99996 5.99996 1.99996H0.666626V0.666626H15.3333V1.99996H10.0773C10.7128 2.37774 11.264 2.88707 11.7306 3.52796C12.1973 4.16885 12.4888 4.85596 12.6053 5.58929H15.3333V6.92263H12.7106C12.7035 8.81152 12.028 10.3266 10.684 11.468C9.34085 12.6093 7.77951 13.18 5.99996 13.18H3.46929L11.9226 22H10.0693Z" fill="white"/>
</g>
<defs>
<clipPath id="clip0_90_652">
<rect width="14.6667" height="21.3333" fill="white" transform="translate(0.666626 0.666626)"/>
</clipPath>
</defs>
</svg>
